@startuml
class MinesweeperGameComponent {
    + game: MinesweeperGame
    + tabledField: MinesweeperField[]
    + reset()
}
class MinesweeperGame {
    - width: number
    - height: number
    - bombs: number
    + revealedCounter: number
    + fields: MinesweeperField[]
    - initNeighbours(): void
    - getField(): MinesweeperField
    + reset(): void
}

class MinesweeperField  {
    + x: number
    + y: number
    + value: number
    + state: number
    + mark(): void
    + reveal(): void
    + reset(): void
}

class MinesweeperFieldComponent {
    + field: MinesweeperField
    + state: MinesweeperStateEnum
    + $onChanges(): void
}

MinesweeperGameComponent --> MinesweeperGame
MinesweeperGameComponent --> MinesweeperField
MinesweeperGame --> MinesweeperField
MinesweeperFieldComponent --> MinesweeperField


@enduml